<svg id="Capa_1" enable-background="new 0 0 512 512" height="512" viewBox="0 0 512 512" width="512" xmlns="http://www.w3.org/2000/svg"><g><path d="m43.245 269.07h282.96v74.1h-282.96z" fill="#bd6100" transform="matrix(.707 -.707 .707 .707 -162.355 220.28)"/><path d="m56.344 300.694h282.96v37.05h-282.96z" fill="#703700" transform="matrix(.707 -.707 .707 .707 -167.781 233.38)"/><path d="m355.051 54.074h89.34v74.1h-89.34z" fill="#bd6100" transform="matrix(.707 -.707 .707 .707 52.641 309.335)"/><path d="m368.15 85.698h89.34v37.05h-89.34z" fill="#703700" transform="matrix(.707 -.707 .707 .707 47.215 322.434)"/><path d="m444.692 280.996-87.243 20.987c1.959-6.739 2.935-13.697 2.935-20.669 0-18.964-7.234-37.922-21.708-52.396l-26.198 26.198-76.749-76.749 26.198-26.198-70.993-33.814-7.608-97.199 97.192 7.615 33.814 70.994 26.198-26.198 76.749 76.749-26.198 26.198c20.117 20.117 48.918 26.248 74.324 18.392z" fill="#e7e7f2"/><path d="m444.692 280.996-87.243 20.987c1.959-6.739 2.935-13.697 2.935-20.669 0-18.964-7.234-37.922-21.708-52.396l-26.198 26.198-38.375-38.375 104.8-104.8 38.375 38.375-26.198 26.198c20.117 20.117 48.918 26.248 74.324 18.392z" fill="#cecee6"/><path d="m468.911 305.215c-38.028 38.028-91.691 50.876-140.29 38.565l10.062-10.062c9.157-9.157 15.415-20.11 18.767-31.735 25.392-6.131 49.462-19.113 69.289-38.94 19.523-19.523 32.407-43.169 38.665-68.137 11.151-3.43 21.652-9.56 30.483-18.392l11.596-11.596c12.311 48.599-.544 102.268-38.572 140.297z" fill="#e7e7f2"/><path d="m32.089 360.97h74.11v121.46h-74.11z" fill="#ffbb10" transform="matrix(.707 -.707 .707 .707 -277.935 172.406)"/><path d="m53.561 412.806h74.11v60.73h-74.11z" fill="#f79406" transform="matrix(.707 -.707 .707 .707 -286.829 193.877)"/></g></svg>