<svg id="Capa_1" enable-background="new 0 0 514.856 514.856" height="512" viewBox="0 0 514.856 514.856" width="512" xmlns="http://www.w3.org/2000/svg"><g><g><g id="XMLID_5_"><path d="m499.174 224.833-38.31 4.12-84.38 71.12-3.67 50.959c13.52 11.06 34.48 11.62 48.47-2.37l75.46-75.46c13.95-13.958 13.42-34.848 2.43-48.369z" fill="#f8f7f8"/></g><path d="m405.22 342.385c-6.353-4.955-11.215-11.887-13.38-20.493l-7.215-28.68-8.14 6.861-3.67 50.959c13.179 10.781 33.425 11.579 47.396-1.346-5.441-1.397-10.576-3.862-14.991-7.301z" fill="#efedee"/><path d="m499.174 224.834-126.36 126.2c-5.75-4.71-10.15-11.3-12.11-19.48l-19.58-81.75-12.27-47.52 19.68-18.89 49.35 9.66 81.75 19.57c8.22 1.97 14.84 6.41 19.54 12.21z" fill="#efedee"/><path d="m417.021 197.635-19.137-4.581-49.35-9.66-19.68 18.89 12.27 47.52 19.58 81.75c1.96 8.18 6.36 14.77 12.11 19.48l21.742-21.714c-1.135-2.313-2.053-4.791-2.717-7.427l-12.442-49.459c-4.066-16.162.66-33.272 12.444-45.057l16.127-16.127c3.959-3.958 7.007-8.582 9.053-13.615z" fill="#e3e1e5"/><path d="m404.326 121.442-10.912-10.912c-5.073-5.073-13.281-5.131-18.425-.13l-317.245 308.41-26.72 25.39 34.969 41.256 30.053-28.344 308.41-317.244c5.001-5.145 4.943-13.352-.13-18.426z" fill="#c3a394"/><g><g id="XMLID_4_"><g><path d="m290.024 15.674c-13.52-10.99-34.41-11.52-48.37 2.44l-75.46 75.46c-13.99 13.99-13.43 34.94-2.37 48.47l37.616 2.555 92.988-97.567z" fill="#f8f7f8"/></g></g><path d="m197.535 128.635c-8.359-2.068-15.104-6.746-19.897-12.845-5.6-7.11-8.561-16.153-8.389-25.272l-3.055 3.055c-13.99 13.99-13.43 34.94-2.37 48.47l37.616 2.555 11.554-12.122z" fill="#efedee"/><path d="m321.804 116.974 9.66 35.74-27.93 30.68-38.49-9.67-81.75-19.57c-8.18-1.95-14.78-6.36-19.47-12.11l126.2-126.37c5.8 4.7 10.24 11.32 12.21 19.55z" fill="#efedee"/><path d="m331.464 152.714-9.66-35.74-4.582-19.141c-5.035 2.046-9.658 5.095-13.617 9.053l-24.575 24.575c-8.66 8.66-21.224 12.15-33.109 9.196l-48.386-12.022c-5.221-1.292-9.811-3.601-13.69-6.639l-20.021 20.048c4.69 5.75 11.29 10.16 19.47 12.11l120.24 29.24 11.364-12.483z" fill="#e3e1e5"/><path d="m404.326 121.442-10.912-10.912c-5.073-5.073-13.281-5.131-18.425-.13l-302.904 294.467-14.341 13.943-26.72 25.39 16.868 19.901 18.101 21.355 30.053-28.344 13.943-14.342-8.911-8.911c-5.826-5.826-5.759-15.293.148-21.036l289.891-281.818c4.693-4.562 11.943-4.894 17.029-1.07-.187-3.092-1.462-6.134-3.82-8.493z" fill="#b79180"/><path d="m315.18 245.749-46.073-46.073c-8.286-8.286-8.286-21.72 0-30.006l48.641-48.641c8.286-8.286 21.72-8.286 30.006 0l46.073 46.073c8.286 8.286 8.286 21.72 0 30.006l-48.641 48.641c-8.286 8.286-21.72 8.286-30.006 0z" fill="#f8f7f8"/><path d="m312.879 205.758c-11.643-11.643-11.642-30.519 0-42.161l38.721-38.721-3.847-3.847c-8.286-8.286-21.72-8.286-30.006 0l-48.641 48.641c-8.286 8.286-8.286 21.72 0 30.006l46.073 46.073c8.286 8.286 21.72 8.286 30.006 0l3.842-3.842z" fill="#efedee"/><path d="m99.169 460.236-44.55-44.55c-5.136-5.136-13.462-5.136-18.598 0l-24.67 24.67c-5.136 5.136-5.136 13.462 0 18.598l44.55 44.55c5.136 5.136 13.462 5.136 18.598 0l24.67-24.67c5.136-5.136 5.136-13.463 0-18.598z" fill="#e7dad5"/><path d="m47.464 468.573c-10.448-10.448-10.448-27.388 0-37.836l11.103-11.103-3.948-3.948c-5.136-5.136-13.462-5.136-18.598 0l-24.67 24.67c-5.136 5.136-5.136 13.462 0 18.598l44.55 44.55c5.136 5.136 13.462 5.135 18.597 0l3.948-3.948z" fill="#dcc9c0"/><path d="m139.758 339.079 60.031 11.318 32.664-33.6-58.798-10.671z" fill="#b79180"/><path d="m173.655 306.126-9.591 9.324-24.306 23.629 31.26 5.894 34.088-33.139z" fill="#ab806b"/><path d="m134.672 417.379-64.041-11.097 35.066-34.09 61.717 11.507z" fill="#b79180"/><path d="m137.013 378.031-31.316-5.839-19.377 18.837-15.689 15.253 31.676 5.489z" fill="#ab806b"/></g></g><path d="m513.166 235.859c-4.347-15.394-16.229-26.807-31.785-30.532l-16.356-3.916c-4.025-.965-8.075 1.519-9.04 5.548-.964 4.028 1.52 8.076 5.547 9.04l16.356 3.916c3.912.937 7.465 2.62 10.526 4.903l-115.517 115.519c-2.283-3.06-3.967-6.613-4.903-10.525l-18.607-77.715c.374-.337.742-.685 1.102-1.045l48.641-48.641c.359-.359.706-.728 1.044-1.102l30.244 7.241c.587.141 1.174.208 1.752.208 3.39 0 6.464-2.314 7.288-5.756.964-4.028-1.52-8.076-5.548-9.04l-26.882-6.436c.336-1.769.513-3.581.513-5.421 0-7.671-2.987-14.882-8.412-20.306l-2.806-2.807 13.51-13.897c7.814-8.039 7.723-21.029-.205-28.956l-10.913-10.913c-7.927-7.928-20.917-8.02-28.957-.204l-13.896 13.509-2.807-2.807c-6.98-6.979-16.688-9.606-25.723-7.884l-17.805-74.367c-3.725-15.556-15.138-27.438-30.532-31.784-15.395-4.347-31.336-.188-42.646 11.122l-75.461 75.461c-11.311 11.311-15.468 27.253-11.121 42.646s16.229 26.807 31.784 30.531l74.353 17.802c-.336 1.769-.513 3.581-.513 5.421 0 7.671 2.987 14.882 8.411 20.306l1.547 1.547-27.612 26.843c-2.97 2.887-3.037 7.635-.149 10.605 1.47 1.512 3.423 2.272 5.378 2.272 1.884 0 3.77-.706 5.228-2.123l27.763-26.99 21.765 21.765-68.115 70.066-40.229-7.664 35.896-34.896c2.97-2.887 3.037-7.635.149-10.605-2.887-2.969-7.635-3.037-10.605-.149l-157.17 152.794c-3.545-2.653-7.819-4.109-12.327-4.109-5.517 0-10.702 2.148-14.602 6.049l-24.67 24.67c-3.9 3.9-6.049 9.086-6.049 14.603 0 5.516 2.148 10.702 6.049 14.602l44.549 44.55c3.9 3.9 9.086 6.049 14.602 6.049s10.702-2.148 14.602-6.049l24.67-24.67c3.9-3.9 6.049-9.086 6.049-14.603 0-4.507-1.456-8.781-4.109-12.327l201.918-207.702 1.547 1.547c5.599 5.599 12.951 8.397 20.306 8.397 1.815 0 3.629-.172 5.418-.513l17.805 74.367c3.725 15.556 15.138 27.438 30.531 31.784 4.018 1.134 8.071 1.689 12.072 1.689 11.327 0 22.216-4.452 30.575-12.811l75.461-75.461c11.31-11.31 15.468-27.253 11.121-42.646zm-296.084 85.989-19.953 20.525-41.807-7.965 20.923-20.34zm-52.432 53.935-43.385-8.265 20.923-20.34 42.416 8.08zm-32.479 33.409-44.963-8.566 20.923-20.341 43.994 8.381zm-58.097 4.202 45.571 8.682-23.675 24.354-27.544-27.544zm19.792 60.136-24.671 24.67c-1.067 1.067-2.486 1.655-3.995 1.655s-2.928-.588-3.996-1.655l-44.549-44.55c-1.067-1.067-1.655-2.486-1.655-3.995s.588-2.928 1.655-3.996l24.671-24.67c1.067-1.067 2.486-1.655 3.995-1.655s2.928.588 3.995 1.655l41.426 41.426c.002.001.003.003.005.004l3.119 3.119c1.067 1.067 1.655 2.486 1.655 3.996s-.587 2.928-1.655 3.996zm286.35-357.753c2.191-2.13 5.733-2.105 7.894.056l10.913 10.913c2.161 2.161 2.186 5.703.056 7.894l-13.362 13.745-19.245-19.245zm-195.172 31.085c-3.912-.937-7.465-2.621-10.525-4.903l21.555-21.555c2.929-2.929 2.929-7.678 0-10.606-2.929-2.929-7.678-2.929-10.606 0l-20.175 20.176c-.413-1.014-.785-2.054-1.089-3.13-2.85-10.094-.124-20.547 7.292-27.964l75.461-75.461c7.417-7.416 17.869-10.144 27.963-7.292 1.077.304 2.117.676 3.131 1.089l-69.949 69.949c-2.929 2.929-2.929 7.678 0 10.606 1.464 1.464 3.384 2.197 5.303 2.197s3.839-.732 5.303-2.197l71.328-71.328c2.283 3.061 3.967 6.614 4.903 10.526l18.607 77.714c-.374.337-.742.685-1.102 1.045l-48.641 48.641c-.359.359-.706.728-1.044 1.102zm135.439 93.584-46.074-46.074c-2.591-2.591-4.018-6.036-4.018-9.7s1.427-7.109 4.018-9.7l48.641-48.641c2.674-2.674 6.187-4.011 9.7-4.011s7.025 1.337 9.7 4.011l46.073 46.074c2.591 2.591 4.018 6.036 4.018 9.7s-1.427 7.109-4.018 9.7l-48.641 48.641c-5.347 5.348-14.05 5.348-19.399 0zm170.955 27.453-75.461 75.461c-7.417 7.417-17.872 10.142-27.964 7.292-1.076-.304-2.116-.676-3.13-1.089l112.759-112.759c.413 1.014.785 2.054 1.089 3.13 2.85 10.095.123 20.548-7.293 27.965z"/></g></svg>