<svg height="423pt" viewBox="-3 0 423 423.25333" width="423pt" xmlns="http://www.w3.org/2000/svg"><path d="m259.539062 187.734375c0 69.75-56.542968 126.292969-126.292968 126.292969s-126.292969-56.542969-126.292969-126.292969 56.542969-126.292969 126.292969-126.292969 126.292968 56.542969 126.292968 126.292969zm0 0" fill="#e7d1c4"/><path d="m27.429688 245.535156v68.980469c0 33.660156 27.199218 60.949219 60.75 60.949219h237.566406c36.042968 0 64.207031-31.222656 60.617187-67.207032l-7.472656-74.964843c-.621094-6.246094 3.152344-12.09375 9.089844-14.082031 7.011719-2.34375 14.59375 1.460937 16.933593 8.496093l3.382813 10.1875s14.886719-80.761719-45.703125-68.789062l-2.195312 6.605469c-2.289063 6.890624-7.5 12.191406-13.972657 14.710937-4.648437 1.808594-7.53125 6.449219-6.453125 11.332031l6.878906 31.148438c2.097657 9.507812 2.675782 19.390625.757813 28.933594-3.164063 15.757812-11.523437 23.179687-27.523437 23.945312l-235.695313 11.261719c-24.445313 1.167969-46.476563-14.695313-53.199219-38.308594zm0 0" fill="#bf7e68"/><path d="m325.746094 382.292969h-237.566406c-37.261719 0-67.574219-30.40625-67.574219-67.78125v-68.972657c0-3.40625 2.507812-6.292968 5.878906-6.757812 3.398437-.496094 6.578125 1.617188 7.511719 4.882812l3.761718 13.203126c5.878907 20.65625 24.914063 34.558593 46.304688 33.359374l235.695312-11.269531c12.839844-.605469 18.582032-5.613281 21.160157-18.464843 1.59375-7.921876 1.347656-16.699219-.734375-26.113282l-6.878906-31.152344c-1.773438-8.015624 2.707031-16.074218 10.644531-19.164062 4.726562-1.84375 8.359375-5.671875 9.96875-10.503906l2.191406-6.605469c.773437-2.335937 2.746094-4.070313 5.15625-4.546875 17.332031-3.402344 31.03125-.308594 40.730469 9.257812 21.289062 21.019532 13.359375 65.582032 13.015625 67.46875-.566407 3.058594-3.132813 5.351563-6.242188 5.574219-3.226562.097657-5.972656-1.707031-6.953125-4.660156l-3.382812-10.1875c-.554688-1.671875-1.734375-3.03125-3.308594-3.820313-1.574219-.785156-3.339844-.90625-4.980469-.351562-2.933593.976562-4.765625 3.832031-4.460937 6.929688l7.476562 74.960937c1.90625 19.105469-4.386718 38.222656-17.261718 52.441406-12.8125 14.152344-31.09375 22.273438-50.152344 22.273438zm-291.488282-102.160157v34.382813c0 29.84375 24.1875 54.125 53.921876 54.125h237.566406c15.210937 0 29.804687-6.480469 40.03125-17.785156 10.285156-11.359375 15.316406-26.640625 13.792968-41.914063l-7.472656-74.96875c-.941406-9.484375 4.699219-18.210937 13.714844-21.230468 5.105469-1.722657 10.585938-1.328126 15.410156 1.085937.628906.3125 1.226563.652344 1.808594 1.019531-.375-12.238281-2.898438-25.847656-10.640625-33.472656-5.707031-5.632812-13.796875-7.691406-24.613281-6.214844l-.898438 2.707032c-2.894531 8.703124-9.4375 15.601562-17.980468 18.921874-1.34375.527344-2.625 1.839844-2.257813 3.492188l6.878906 31.15625c2.492188 11.277344 2.753907 21.957031.785157 31.75-3.800782 18.886719-14.886719 28.507812-33.890626 29.414062l-235.695312 11.265626c-20.375 1.007812-38.90625-8.253907-50.460938-23.734376zm0 0" fill="#4c241d"/><path d="m160.96875 300.5c0 25.609375-20.761719 46.371094-46.371094 46.371094s-46.371094-20.761719-46.371094-46.371094 20.761719-46.367188 46.371094-46.367188 46.371094 20.757813 46.371094 46.367188zm0 0" fill="#ffce56"/><path d="m114.597656 353.699219c-29.332031 0-53.199218-23.867188-53.199218-53.199219 0-29.335938 23.867187-53.195312 53.199218-53.195312 29.335938 0 53.195313 23.859374 53.195313 53.195312 0 29.332031-23.859375 53.199219-53.195313 53.199219zm0-92.738281c-21.804687 0-39.546875 17.738281-39.546875 39.539062 0 21.804688 17.742188 39.546875 39.546875 39.546875 21.800782 0 39.539063-17.742187 39.539063-39.546875 0-21.800781-17.738281-39.539062-39.539063-39.539062zm0 0" fill="#4c241d"/><path d="m346.445312 300.5c0 25.609375-20.757812 46.371094-46.367187 46.371094s-46.371094-20.761719-46.371094-46.371094 20.761719-46.367188 46.371094-46.367188 46.367187 20.757813 46.367187 46.367188zm0 0" fill="#9dc1e4"/><g fill="#4c241d"><path d="m300.078125 353.699219c-29.332031 0-53.199219-23.867188-53.199219-53.199219 0-29.335938 23.867188-53.195312 53.199219-53.195312 29.335937 0 53.195313 23.859374 53.195313 53.195312 0 29.332031-23.859376 53.199219-53.195313 53.199219zm0-92.738281c-21.804687 0-39.546875 17.738281-39.546875 39.539062 0 21.804688 17.742188 39.546875 39.546875 39.546875 21.800781 0 39.539063-17.742187 39.539063-39.546875 0-21.800781-17.738282-39.539062-39.539063-39.539062zm0 0"/><path d="m199.597656 423.253906c-1.105468 0-2.21875-.265625-3.257812-.832031-3.3125-1.808594-4.535156-5.949219-2.726563-9.261719l54.964844-100.855468c1.808594-3.3125 5.9375-4.523438 9.261719-2.726563 3.3125 1.808594 4.53125 5.945313 2.726562 9.261719l-54.96875 100.851562c-1.238281 2.273438-3.578125 3.5625-6 3.5625zm0 0"/><path d="m106.863281 423.253906c-1.097656 0-2.21875-.265625-3.257812-.832031-3.3125-1.800781-4.53125-5.949219-2.726563-9.261719l54.957032-100.855468c1.808593-3.304688 5.929687-4.539063 9.261718-2.726563 3.3125 1.800781 4.535156 5.945313 2.726563 9.261719l-54.957031 100.851562c-1.242188 2.273438-3.582032 3.5625-6.003907 3.5625zm0 0"/><path d="m204.925781 266.238281c-3.773437 0-6.828125-3.050781-6.828125-6.824219v-252.585937c0-3.773437 3.054688-6.828125 6.828125-6.828125 3.773438 0 6.824219 3.054688 6.824219 6.828125v252.585937c0 3.773438-3.050781 6.824219-6.824219 6.824219zm0 0"/></g><path d="m134.015625 300.5c0 10.726562-8.691406 19.417969-19.417969 19.417969-10.722656 0-19.417968-8.691407-19.417968-19.417969 0-10.722656 8.695312-19.417969 19.417968-19.417969 10.726563 0 19.417969 8.695313 19.417969 19.417969zm0 0" fill="#e7d1c4"/><path d="m114.597656 326.746094c-14.472656 0-26.246094-11.773438-26.246094-26.246094 0-14.46875 11.773438-26.242188 26.246094-26.242188 14.46875 0 26.242188 11.773438 26.242188 26.242188 0 14.472656-11.773438 26.246094-26.242188 26.246094zm0-38.832032c-6.945312 0-12.59375 5.644532-12.59375 12.585938 0 6.945312 5.648438 12.59375 12.59375 12.59375 6.941406 0 12.585938-5.648438 12.585938-12.59375 0-6.941406-5.644532-12.585938-12.585938-12.585938zm0 0" fill="#4c241d"/><path d="m319.496094 300.5c0 10.726562-8.695313 19.417969-19.417969 19.417969-10.726563 0-19.417969-8.691407-19.417969-19.417969 0-10.722656 8.691406-19.417969 19.417969-19.417969 10.722656 0 19.417969 8.695313 19.417969 19.417969zm0 0" fill="#e7d1c4"/><path d="m300.078125 326.746094c-14.472656 0-26.246094-11.773438-26.246094-26.246094 0-14.46875 11.773438-26.242188 26.246094-26.242188 14.46875 0 26.242187 11.773438 26.242187 26.242188 0 14.472656-11.773437 26.246094-26.242187 26.246094zm0-38.832032c-6.945313 0-12.59375 5.644532-12.59375 12.585938 0 6.945312 5.648437 12.59375 12.59375 12.59375 6.941406 0 12.585937-5.648438 12.585937-12.59375 0-6.941406-5.644531-12.585938-12.585937-12.585938zm0 0" fill="#4c241d"/><path d="m26.671875 298.851562c-3.773437 0-6.828125-3.050781-6.828125-6.824218v-70.542969c0-1.671875-1.359375-3.03125-3.03125-3.03125s-3.03125 1.359375-3.03125 3.03125v15.902344c0 3.773437-3.054688 6.824219-6.828125 6.824219s-6.828125-3.050782-6.828125-6.824219v-15.902344c0-9.199219 7.488281-16.683594 16.6875-16.683594s16.6875 7.488281 16.6875 16.683594v70.542969c0 3.773437-3.054688 6.824218-6.828125 6.824218zm0 0" fill="#4c241d"/><path d="m184.445312 34.132812h-68.265624c-3.773438 0-6.828126-3.050781-6.828126-6.824218 0-3.773438 3.054688-6.828125 6.828126-6.828125h68.265624c3.773438 0 6.828126 3.054687 6.828126 6.828125 0 3.773437-3.054688 6.824218-6.828126 6.824218zm0 0" fill="#4c241d"/><path d="m245.886719 129.707031c0-56.554687-45.847657-102.398437-102.402344-102.398437h-52.070313c55.484376 0 100.46875 45.84375 100.46875 102.398437 0 56.554688-44.984374 102.398438-100.46875 102.398438h52.070313c56.554687 0 102.402344-45.84375 102.402344-102.398438zm0 0" fill="#f53e28"/><path d="m143.484375 238.933594h-52.070313c-3.773437 0-6.828124-3.054688-6.828124-6.828125 0-3.773438 3.054687-6.824219 6.828124-6.824219 51.632813 0 93.636719-42.875 93.636719-95.574219s-42.003906-95.574219-93.636719-95.574219c-3.773437 0-6.828124-3.050781-6.828124-6.824218 0-3.773438 3.054687-6.828125 6.828124-6.828125h52.074219c60.226563 0 109.226563 49 109.226563 109.226562 0 60.226563-49.003906 109.226563-109.230469 109.226563zm-.164063-13.652344h.167969c52.699219 0 95.570313-42.875 95.570313-95.574219s-42.871094-95.574219-95.570313-95.574219h-.167969c33 18.648438 55.386719 54.5 55.386719 95.574219s-22.386719 76.925781-55.386719 95.574219zm0 0" fill="#4c241d"/><path d="m222.792969 27.308594h-38.347657c56.554688 0 102.402344 45.84375 102.402344 102.398437 0 56.554688-45.847656 102.398438-102.402344 102.398438h38.347657c55.488281 0 100.46875-45.84375 100.46875-102.398438 0-56.554687-44.980469-102.398437-100.46875-102.398437zm0 0" fill="#f53e28"/><path d="m222.792969 238.933594h-38.347657c-3.773437 0-6.828124-3.054688-6.828124-6.828125 0-3.773438 3.054687-6.824219 6.828124-6.824219 52.699219 0 95.574219-42.875 95.574219-95.574219s-42.875-95.574219-95.574219-95.574219c-3.773437 0-6.828124-3.050781-6.828124-6.824218 0-3.773438 3.054687-6.828125 6.828124-6.828125h38.347657c59.160156 0 107.292969 49 107.292969 109.226562 0 60.226563-48.132813 109.226563-107.292969 109.226563zm17.359375-203.152344c32.019531 19.058594 53.519531 54.03125 53.519531 93.925781s-21.5 74.867188-53.519531 93.925781c43.367187-8.328124 76.28125-47.28125 76.28125-93.925781 0-46.648437-32.914063-85.601562-76.28125-93.925781zm0 0" fill="#4c241d"/><path d="m286.84375 129.707031c0-56.554687-45.84375-102.398437-102.398438-102.398437h-40.960937c56.554687 0 102.402344 45.84375 102.402344 102.398437 0 56.554688-45.847657 102.398438-102.402344 102.398438h40.960937c56.554688 0 102.398438-45.84375 102.398438-102.398438zm0 0" fill="#edebdc"/><path d="m184.445312 238.933594h-40.960937c-3.773437 0-6.824219-3.054688-6.824219-6.828125 0-3.773438 3.050782-6.824219 6.824219-6.824219 52.699219 0 95.574219-42.875 95.574219-95.574219s-42.875-95.574219-95.574219-95.574219c-3.773437 0-6.824219-3.050781-6.824219-6.824218 0-3.773438 3.050782-6.828125 6.824219-6.828125h40.960937c60.226563 0 109.226563 49 109.226563 109.226562 0 60.226563-49 109.226563-109.226563 109.226563zm13.578126-203.839844c32.660156 18.90625 54.6875 54.234375 54.6875 94.613281 0 40.378907-22.027344 75.707031-54.6875 94.613281 46.289062-6.613281 81.996093-46.519531 81.996093-94.613281s-35.707031-88-81.996093-94.613281zm0 0" fill="#4c241d"/><path d="m253.707031 300.5c0 25.609375-20.761719 46.371094-46.371093 46.371094-25.609376 0-46.371094-20.761719-46.371094-46.371094s20.761718-46.367188 46.371094-46.367188c25.609374 0 46.371093 20.757813 46.371093 46.367188zm0 0" fill="#a9ba5a"/><path d="m207.339844 353.699219c-29.335938 0-53.203125-23.867188-53.203125-53.199219 0-29.335938 23.867187-53.195312 53.203125-53.195312 29.332031 0 53.191406 23.859374 53.191406 53.195312 0 29.332031-23.859375 53.199219-53.191406 53.199219zm0-92.738281c-21.808594 0-39.546875 17.738281-39.546875 39.539062 0 21.804688 17.738281 39.546875 39.546875 39.546875 21.796875 0 39.539062-17.742187 39.539062-39.546875 0-21.800781-17.738281-39.539062-39.539062-39.539062zm0 0" fill="#4c241d"/><path d="m226.753906 300.5c0 10.726562-8.691406 19.417969-19.417968 19.417969-10.722657 0-19.417969-8.691407-19.417969-19.417969 0-10.722656 8.695312-19.417969 19.417969-19.417969 10.726562 0 19.417968 8.695313 19.417968 19.417969zm0 0" fill="#e7d1c4"/><path d="m207.339844 326.746094c-14.472656 0-26.25-11.773438-26.25-26.246094 0-14.46875 11.773437-26.242188 26.25-26.242188 14.464844 0 26.238281 11.773438 26.238281 26.242188 0 14.472656-11.773437 26.246094-26.238281 26.246094zm0-38.832032c-6.949219 0-12.59375 5.644532-12.59375 12.585938 0 6.945312 5.644531 12.59375 12.59375 12.59375 6.9375 0 12.585937-5.648438 12.585937-12.59375 0-6.941406-5.648437-12.585938-12.585937-12.585938zm0 0" fill="#4c241d"/></svg>