<svg id="Capa_1" enable-background="new 0 0 496.785 496.785" height="512" viewBox="0 0 496.785 496.785" width="512" xmlns="http://www.w3.org/2000/svg"><g><g><path d="m418.523 197.06c0-4.49 1.82-8.56 4.77-11.5 2.94-2.94 7.01-4.76 11.5-4.76 8.98 0 16.26 7.28 16.26 16.26v172.77c0 42.8-38.99 75-81.02 66.91l-20.85-4.01-90.85-27.69v-48.62l39.54-61.9 2.89-8.37c5.37-15.56 5.5-32.45.37-48.1l-16.45-50.19c-10.82-33-3.38-69.26 19.56-95.33l6.12-6.96c6.56-7.46 10.18-17.05 10.18-26.98v-42.12c0-4.55 1.84-8.66 4.82-11.64 2.98-2.99 7.09-4.83 11.64-4.83 9.09 0 16.46 7.38 16.46 16.47v60.7c0-8.98 7.29-16.27 16.27-16.27 4.49 0 8.56 1.82 11.5 4.77 2.94 2.94 4.76 7.01 4.76 11.5v64.17c0-8.98 7.29-16.27 16.27-16.27 4.49 0 8.55 1.82 11.5 4.77 2.94 2.94 4.76 7.01 4.76 11.5z" fill="#fcefd8"/></g><g><g id="XMLID_68_"><g><path d="m143.323 77.17v-60.7c0-9.09 7.37-16.47 16.46-16.47 4.55 0 8.66 1.84 11.64 4.83 2.98 2.98 4.82 7.09 4.82 11.64v42.12c0 9.93 3.62 19.52 10.18 26.98l6.12 6.96c22.94 26.07 30.38 62.33 19.56 95.33l-16.45 50.19c-5.13 15.65-5 32.54.37 48.1l2.89 8.37 38.78 86.67-3.08 40.6-87.01 10.94-20.85 4.01c-42.03 8.09-81.02-24.11-81.02-66.91v-172.77c0-8.98 7.28-16.26 16.26-16.26 4.49 0 8.56 1.82 11.5 4.76 2.95 2.94 4.77 7.01 4.77 11.5v-55.72c0-4.49 1.82-8.56 4.76-11.5 2.95-2.95 7.01-4.77 11.5-4.77 8.98 0 16.27 7.29 16.27 16.27v-64.17c0-4.49 1.82-8.56 4.76-11.5 2.94-2.95 7.01-4.77 11.5-4.77 8.98 0 16.27 7.29 16.27 16.27z" fill="#fcefd8"/></g></g></g><path d="m369.183 407.755c0-31.886-8.904-63.05-25.749-90.123-10.563-16.977-23.937-31.877-39.506-44.092-.687 4.259-1.744 8.49-3.166 12.611l-2.89 8.37-39.54 61.9v48.62l90.85 27.69 20.001 3.847z" fill="#f8e8ce"/><path d="m237.693 381.19-38.78-86.67-2.89-8.37c-1.422-4.121-2.478-8.345-3.165-12.605-15.569 12.216-28.944 27.11-39.507 44.087-12.214 19.631-20.245 41.413-23.738 64.062-2.206 14.302-18.826 21.4-30.488 12.832-16.73-12.291-27.823-32.103-27.823-54.932l.013-155.861c-2.855-1.996-6.392-3.107-10.181-2.911-8.708.45-15.402 7.932-15.402 16.652v172.356c0 42.8 38.99 75 81.02 66.91l20.85-4.01 87.01-10.94 2.07-27.281zm-1.011 6.231c.516-.259.44-.215-.115.075-1.075.669-2.823 3.492-4.959 7.651l-13.093 1.646c8.869-4.559 16.188-8.325 18.052-9.297.038-.024.079-.057.115-.075z" fill="#f8e8ce"/><path d="m349.183 407.755c0-57.367-32.594-109.752-84.058-135.098l-11.196-5.514c-3.491-1.719-7.582-1.719-11.073 0l-11.196 5.514c-51.464 25.346-84.058 77.731-84.058 135.098v66.495h201.581z" fill="#c3a394"/><path d="m349.183 431.715h-132.915c-10.428 0-18.881-8.453-18.881-18.881v-5.079c0-54.269 29.199-104.074 75.918-130.753-2.667-1.523-5.4-2.976-8.179-4.344l-11.196-5.514c-3.491-1.719-7.582-1.719-11.073 0l-11.196 5.514c-51.464 25.346-84.058 77.731-84.058 135.098v66.495h40.933 8.851 151.797z" fill="#b79180"/><path d="m349.183 496.785h-201.581c-7.765 0-14.06-6.295-14.06-14.06v-16.95c0-7.765 6.295-14.06 14.06-14.06h201.581c7.765 0 14.06 6.295 14.06 14.06v16.95c0 7.765-6.295 14.06-14.06 14.06z" fill="#f8e798"/><path d="m181.916 484.407c-13.311 0-24.102-10.791-24.102-24.102v-6.908c0-.57.044-1.129.11-1.682h-10.321c-7.765 0-14.06 6.295-14.06 14.06v16.95c0 7.765 6.295 14.061 14.061 14.061h201.581c7.195 0 13.125-5.419 13.957-12.39z" fill="#f8e283"/><g><path d="m249.893 425.163h-1.373c-4.142 0-7.5-3.357-7.5-7.5s3.358-7.5 7.5-7.5h1.373c4.142 0 7.5 3.357 7.5 7.5s-3.358 7.5-7.5 7.5z" fill="#b79180"/></g><g><path d="m213.728 425.163h-1.373c-4.142 0-7.5-3.357-7.5-7.5s3.358-7.5 7.5-7.5h1.373c4.142 0 7.5 3.357 7.5 7.5s-3.358 7.5-7.5 7.5z" fill="#b79180"/></g><g><path d="m178.563 425.163h-1.373c-4.142 0-7.5-3.357-7.5-7.5s3.358-7.5 7.5-7.5h1.373c4.142 0 7.5 3.357 7.5 7.5s-3.358 7.5-7.5 7.5z" fill="#ab806b"/></g><g><path d="m285.43 425.163h-1.373c-4.142 0-7.5-3.357-7.5-7.5s3.358-7.5 7.5-7.5h1.373c4.142 0 7.5 3.357 7.5 7.5s-3.358 7.5-7.5 7.5z" fill="#b79180"/></g><g><path d="m320.595 425.163h-1.373c-4.142 0-7.5-3.357-7.5-7.5s3.358-7.5 7.5-7.5h1.373c4.142 0 7.5 3.357 7.5 7.5s-3.358 7.5-7.5 7.5z" fill="#b79180"/></g></g></svg>